<?xml version="1.0" encoding="iso-8859-1"?>
<!-- Generator: Adobe Illustrator 19.0.0, SVG Export Plug-In . SVG Version: 6.00 Build 0)  -->
<svg version="1.1" id="Capa_1" xmlns="http://www.w3.org/2000/svg" xmlns:xlink="http://www.w3.org/1999/xlink" x="0px" y="0px"
	 viewBox="0 0 458.974 458.974" style="enable-background:new 0 0 458.974 458.974;" xml:space="preserve">
<g>
	<g>
		<path d="M458.27,297.42c-2.56-8.192-11.264-12.8-18.944-10.24h-0.512l-186.88,61.44c-12.288-19.456-34.816-30.72-57.856-29.184
			L109.086,61.388C100.894,36.3,78.366,18.38,51.742,15.82l-34.816-3.072C8.222,11.724,0.542,18.38,0.03,26.572
			c-0.512,8.192,5.632,15.872,13.824,16.896L48.67,46.54c14.336,1.536,26.112,10.752,30.72,24.576l84.992,258.56
			c-29.696,18.432-38.4,57.344-19.968,87.04c18.432,29.696,57.344,38.4,87.04,19.968c19.968-12.288,31.232-34.816,29.184-57.856
			l186.88-61.44C456.222,314.316,460.83,305.612,458.27,297.42z"/>
	</g>
</g>
<g>
	<g>
		<path d="M445.47,225.74L385.566,42.956c-3.072-8.704-12.288-13.824-21.504-10.752l-189.44,61.952
			c-8.704,3.072-13.824,12.288-10.752,21.504l59.904,182.784c3.072,8.704,12.288,13.824,21.504,10.752l189.44-61.952
			C443.422,244.172,448.542,234.956,445.47,225.74z"/>
	</g>
</g>
<g>
</g>
<g>
</g>
<g>
</g>
<g>
</g>
<g>
</g>
<g>
</g>
<g>
</g>
<g>
</g>
<g>
</g>
<g>
</g>
<g>
</g>
<g>
</g>
<g>
</g>
<g>
</g>
<g>
</g>
</svg>
