<?xml version="1.0" encoding="iso-8859-1"?>
<!-- Generator: Adobe Illustrator 19.0.0, SVG Export Plug-In . SVG Version: 6.00 Build 0)  -->
<svg version="1.1" id="Capa_1" xmlns="http://www.w3.org/2000/svg" xmlns:xlink="http://www.w3.org/1999/xlink" x="0px" y="0px"
	 viewBox="0 0 512 512" style="enable-background:new 0 0 512 512;" xml:space="preserve">
<g>
	<g>
		<circle cx="368" cy="320" r="16"/>
	</g>
</g>
<g>
	<g>
		<circle cx="272" cy="192" r="16"/>
	</g>
</g>
<g>
	<g>
		<path d="M480,80H176c-4.256,0-8.32,1.696-11.328,4.672L144,105.376l-20.672-20.704C120.32,81.696,116.256,80,112,80H32
			C14.368,80,0,94.368,0,112v288c0,17.664,14.368,32,32,32h80c4.256,0,8.32-1.696,11.328-4.672L144,406.624l20.672,20.672
			C167.68,430.304,171.744,432,176,432h304c17.664,0,32-14.336,32-32V112C512,94.368,497.664,80,480,80z M160,368h-32v-32h32V368z
			 M160,304h-32v-32h32V304z M160,240h-32v-32h32V240z M160,176h-32v-32h32V176z M272,144c26.464,0,48,21.536,48,48
			s-21.536,48-48,48s-48-21.536-48-48S245.536,144,272,144z M240,368c-3.616,0-7.232-1.216-10.24-3.712
			c-6.784-5.664-7.712-15.744-2.048-22.528l160-192c5.696-6.816,15.776-7.648,22.528-2.048c6.784,5.664,7.68,15.744,2.016,22.56
			l-160,192C249.12,366.016,244.576,368,240,368z M368,368c-26.464,0-48-21.536-48-48s21.536-48,48-48s48,21.536,48,48
			S394.464,368,368,368z"/>
	</g>
</g>
<g>
</g>
<g>
</g>
<g>
</g>
<g>
</g>
<g>
</g>
<g>
</g>
<g>
</g>
<g>
</g>
<g>
</g>
<g>
</g>
<g>
</g>
<g>
</g>
<g>
</g>
<g>
</g>
<g>
</g>
</svg>
